<svg width="22" height="16" viewBox="0 0 22 16" fill="none" xmlns="http://www.w3.org/2000/svg">
<path d="M12.2671 0.167629C12.1962 0.112997 12.1124 0.0700841 12.0207 0.0413414C11.929 0.0125987 11.8311 -0.00141122 11.7327 0.000111728C11.5338 0.00318746 11.3446 0.069345 11.2067 0.18403C11.0688 0.298715 10.9935 0.452533 10.9973 0.611647C11.0012 0.77076 11.0839 0.922135 11.2272 1.03247L19.5016 7.40077L0.749946 7.40077C0.551048 7.40077 0.360296 7.46399 0.219654 7.57652C0.0790115 7.68904 -4.30549e-07 7.84166 -4.39287e-07 8.0008C-4.48024e-07 8.15994 0.0790115 8.31256 0.219654 8.42508C0.360296 8.53761 0.551048 8.60083 0.749946 8.60083L19.4996 8.60083L11.2262 14.9675C11.1552 15.0222 11.0984 15.0874 11.059 15.1596C11.0195 15.2319 10.9982 15.3096 10.9963 15.3884C10.9944 15.4671 11.0119 15.5455 11.0479 15.6188C11.0838 15.6922 11.1374 15.7592 11.2057 15.816C11.274 15.8728 11.3556 15.9182 11.4458 15.9498C11.5361 15.9813 11.6332 15.9984 11.7317 15.9999C11.8301 16.0014 11.928 15.9874 12.0197 15.9587C12.1114 15.9299 12.1952 15.887 12.2661 15.8324L21.6935 8.57683C21.7904 8.50218 21.8675 8.41266 21.9202 8.31361C21.9729 8.21457 22 8.10804 22 8.0004C22 7.89276 21.9729 7.78623 21.9202 7.68718C21.8675 7.58814 21.7904 7.49861 21.6935 7.42397L12.2671 0.167629Z" fill="white"/>
</svg>
